# xmcd CD database file
#
# Track frame offsets:
#	183
#	13625
#	24965
#	36895
#	48863
#	61763
#	74483
#	84050
#	96365
#	108135
#	119285
#	129085
#	140600
#	153483
#	167015
#	177400
#	187260
#	199180
#
# Disc length: 2783 seconds
#
# Revision: 6
# Processed by: cddbd v1.5.2PL0 Copyright (c) Steve Scherf et al.
# Submitted via: CDex 1.70beta2
#
DISCID=ea0add12
DTITLE=The Greatest Country Ballads - Gold On Silver - The Greatest Country Ballads
DYEAR=1997
DGENRE=Country
TTITLE0=Lynn Anderson - Rose Garden
TTITLE1=Stonewall Jack - Have I Told You Lately That I Love You
TTITLE2=Telly Savalas - Some Broken Hearts Never Mend
TTITLE3=Jody Miller - Queen Of The House
TTITLE4=Jerry Wallace - In The Misty Moonlight
TTITLE5=Roy Drusky - Three Hearts In A Tangle
TTITLE6=Ned Miller - Invisible Tears
TTITLE7=Jack Blanchard and Misty Morgan - Tennessee Birdwalk
TTITLE8=Don Gibson - I Can't Stop Loving You
TTITLE9=Faron Young - The Yellow Bandana
TTITLE10=Hank Locklin - Please Help Me I'm Falling
TTITLE11=Sammi Smith - Help Me Make It Through The Night
TTITLE12=Claude King - Wolverton Mountain
TTITLE13=David Houston - Almost Persuaded
TTITLE14=George Hamilton IV - Abilene
TTITLE15=Skeeter Davis - I Can't Stay Mad At You
TTITLE16=Ray Charles - Together Again
TTITLE17=Dave Dudley - Truck Drivin' Son-Of-A-Gun
EXTD=YEAR: 1997
EXTT0=
EXTT1=
EXTT2=
EXTT3=
EXTT4=
EXTT5=
EXTT6=
EXTT7=
EXTT8=
EXTT9=
EXTT10=
EXTT11=
EXTT12=
EXTT13=
EXTT14=
EXTT15=
EXTT16=
EXTT17=
PLAYORDER=
